<svg width="40" height="40" viewBox="0 0 40 40" fill="none" xmlns="http://www.w3.org/2000/svg">
<rect width="40" height="40" rx="3" fill="#3366FF"/>
<path d="M26.75 25.5C27.0625 25.5 27.3555 25.5586 27.6289 25.6758C27.9023 25.793 28.1406 25.9531 28.3438 26.1562C28.5469 26.3594 28.707 26.5977 28.8242 26.8711C28.9414 27.1445 29 27.4375 29 27.75C29 28.0625 28.9414 28.3555 28.8242 28.6289C28.707 28.9023 28.5469 29.1406 28.3438 29.3438C28.1406 29.5469 27.9023 29.707 27.6289 29.8242C27.3555 29.9414 27.0625 30 26.75 30C26.4375 30 26.1445 29.9414 25.8711 29.8242C25.5977 29.707 25.3594 29.5469 25.1562 29.3438C24.9531 29.1406 24.793 28.9023 24.6758 28.6289C24.5586 28.3555 24.5 28.0625 24.5 27.75C24.5 27.5078 24.543 27.2578 24.6289 27H18.3711C18.457 27.2578 18.5 27.5078 18.5 27.75C18.5 28.0625 18.4414 28.3555 18.3242 28.6289C18.207 28.9023 18.0469 29.1406 17.8438 29.3438C17.6406 29.5469 17.4023 29.707 17.1289 29.8242C16.8555 29.9414 16.5625 30 16.25 30C15.9375 30 15.6445 29.9414 15.3711 29.8242C15.0977 29.707 14.8594 29.5469 14.6562 29.3438C14.4531 29.1406 14.293 28.9023 14.1758 28.6289C14.0586 28.3555 14 28.0625 14 27.75C14 27.3203 14.1133 26.9219 14.3398 26.5547C14.5664 26.1875 14.8789 25.9102 15.2773 25.7227L10.2148 10.5H8V9H11.293L12.2891 12H32L28.5078 22.5H15.793L16.7891 25.5H26.75ZM12.793 13.5L15.2891 21H27.418L29.9141 13.5H12.793ZM17 27.75C17 27.5469 16.9258 27.3711 16.7773 27.2227C16.6289 27.0742 16.4531 27 16.25 27C16.0469 27 15.8711 27.0742 15.7227 27.2227C15.5742 27.3711 15.5 27.5469 15.5 27.75C15.5 27.9531 15.5742 28.1289 15.7227 28.2773C15.8711 28.4258 16.0469 28.5 16.25 28.5C16.4531 28.5 16.6289 28.4258 16.7773 28.2773C16.9258 28.1289 17 27.9531 17 27.75ZM26.75 28.5C26.9531 28.5 27.1289 28.4258 27.2773 28.2773C27.4258 28.1289 27.5 27.9531 27.5 27.75C27.5 27.5469 27.4258 27.3711 27.2773 27.2227C27.1289 27.0742 26.9531 27 26.75 27C26.5469 27 26.3711 27.0742 26.2227 27.2227C26.0742 27.3711 26 27.5469 26 27.75C26 27.9531 26.0742 28.1289 26.2227 28.2773C26.3711 28.4258 26.5469 28.5 26.75 28.5Z" fill="white"/>
</svg>
